<svg xmlns="http://www.w3.org/2000/svg" viewBox="0 -0.5 80 30" shape-rendering="crispEdges">
<metadata>Made with Pixels to Svg https://codepen.io/shshaw/pen/XbxvNj</metadata>
<path stroke="#000000" d="M4 0h76M3 1h1M79 1h1M2 2h1M79 2h1M1 3h1M4 3h1M79 3h1M0 4h1M3 4h1M5 4h1M79 4h1M0 5h1M4 5h1M79 5h1M0 6h1M79 6h1M0 7h1M79 7h1M0 8h1M79 8h1M0 9h1M79 9h1M0 10h1M79 10h1M0 11h1M79 11h1M0 12h1M79 12h1M0 13h1M79 13h1M0 14h1M79 14h1M0 15h1M79 15h1M0 16h1M79 16h1M0 17h1M79 17h1M0 18h1M79 18h1M0 19h1M79 19h1M0 20h1M79 20h1M0 21h1M79 21h1M0 22h1M79 22h1M0 23h1M79 23h1M0 24h1M73 24h2M78 24h2M0 25h1M74 25h4M79 25h1M0 26h1M74 26h1M78 26h1M0 27h1M74 27h1M78 27h1M0 28h1M73 28h1M77 28h1M0 29h77" />
<path stroke="#e9d16e" d="M4 1h75M3 2h76M2 3h2M5 3h74M1 4h2M6 4h73M1 5h3M5 5h74M1 6h78M1 7h78M1 8h78M1 9h78M1 10h78M1 11h78M1 12h78M1 13h78M1 14h78M1 15h78M1 16h78M1 17h78M1 18h78M1 19h78M1 20h78M1 21h78M1 22h78M1 23h78M1 24h72M75 24h3M1 25h73M1 26h73M1 27h73M1 28h72" />
<path stroke="#a9a9a9" d="M4 4h1" />
<path stroke="#978124" d="M78 25h1M75 26h3M75 27h3M74 28h3" />
</svg>